<svg viewBox="0 0 64 64" xmlns="http://www.w3.org/2000/svg"><style/><path d="M59.5 15.8c-.8.6-1.6 1.1-2.5 1.6.1.8.1 1.7.1 2.6 0 11.6-5 22.1-12.9 29.4-6.2 4.6-13.9 7.3-22.3 7.3-7.3 0-14.1-2.1-19.9-5.7 1.2.2 2.4.3 3.7.3 5.8 0 11.1-2 15.3-5.3-5.4-.1-10-3.7-11.6-8.7.7.1 1.5.2 2.3.2 1.1 0 2.1-.1 3.1-.4-2.3-.5-4.3-1.7-5.9-3.3-2.3-2.2-3.7-5.4-3.7-8.8v-.2c1.5.8 3.1 1.3 4.9 1.5C8.3 24.9 6.8 23 6 20.8c-.5-1.4-.8-2.9-.8-4.4 0-.6 0-1.3.1-1.9.3-1.7.9-3.3 1.7-4.6.9 1 1.9 2 3 3 .5.5 1.1.9 1.6 1.4 3.1 2.5 6.6 4.5 10.3 6 .5.2.9.4 1.4.5 1.7.6 3.4 1.1 5.2 1.4.4.1.8.2 1.2.2.2 0 .3.1.5.1.8.1 1.5.2 2.3.3-.2-.9-.4-1.9-.4-3 0-4.2 2.1-7.9 5.3-10.1.2-.2.4-.3.7-.4 0 0 .1 0 .1.1v-.1c1.9-1.1 4-1.8 6.4-1.8 3.6 0 6.8 1.5 9.1 4 .8-.2 1.7-.4 2.5-.6.9-.3 1.7-.5 2.5-.9 1-.4 1.9-.9 2.8-1.4-.5 1.5-1.3 2.9-2.3 4.1-.7.8-1.5 1.5-2.3 2.2-.2.1-.4.3-.6.4h-.2v.1l.1-.1c.2 0 .4-.1.7-.1.9-.1 1.7-.3 2.6-.5.9-.2 1.8-.5 2.6-.8-.9.6-1.8 1.2-2.6 1.9z" fill="#1da1f3" id="twitter"/></svg>