<svg xmlns="http://www.w3.org/2000/svg" viewBox="0 0 64 64"><path d="M5 45h25v-2h-5.985C24.324 25.939 32.546 9 48 9h7c1.654 0 3 1.346 3 3v28c0 1.654-1.346 3-3 3H36v2h19c2.757 0 5-2.243 5-5v-5.197c1.297 2.158 2 4.633 2 7.197 0 7.72-6.28 14-14 14s-14-6.28-14-14c0-2.493.653-4.879 1.883-6.997l1.222 2.445 1.789-.895-2-4A.998.998 0 0036 32h-5v2h3.154A15.841 15.841 0 0032 42c0 8.822 7.178 16 16 16s16-7.178 16-16a15.94 15.94 0 00-4-10.563V12c0-2.757-2.243-5-5-5H5c-2.757 0-5 2.243-5 5v28c0 2.757 2.243 5 5 5zM38.936 9C28.037 14.155 22.27 28.538 22.015 43h-4.004C18.242 26.433 24.203 9 37 9h1.936zM2 12c0-1.654 1.346-3 3-3h24.645c-7.399 4.2-13.424 15.161-13.632 34H5c-1.654 0-3-1.346-3-3V12z"/><path d="M7 31h6c1.654 0 3-1.346 3-3v-4c0-1.654-1.346-3-3-3H7c-1.654 0-3 1.346-3 3v4c0 1.654 1.346 3 3 3zm-1-7c0-.551.448-1 1-1h6c.552 0 1 .449 1 1v4c0 .551-.448 1-1 1H7c-.552 0-1-.449-1-1v-4zm36 6h2v11h-2zm4 0h2v11h-2zm4 0h2v11h-2zm4 0h2v11h-2z"/></svg>