<svg xmlns="http://www.w3.org/2000/svg" viewBox="0 0 64 64"><path d="M61 30v-3c0-5.514-4.486-10-10-10h-5v2h5c4.411 0 8 3.589 8 8v3h2zM3 45h2v4c0 5.177 3.954 9.447 9 9.95V61c0 1.654 1.346 3 3 3h10c1.654 0 3-1.346 3-3v-2h6v2c0 1.654 1.346 3 3 3h10c1.654 0 3-1.346 3-3v-2.05c5.046-.503 9-4.773 9-9.95V38h-2v11c0 4.411-3.589 8-8 8a1 1 0 00-1 1v3c0 .552-.449 1-1 1H39c-.551 0-1-.448-1-1v-3a1 1 0 00-1-1h-8a1 1 0 00-1 1v3c0 .552-.449 1-1 1H17c-.551 0-1-.448-1-1v-3a1 1 0 00-1-1c-4.411 0-8-3.589-8-8v-5a1 1 0 00-1-1H3c-.551 0-1-.448-1-1v-1h2v-2H2v-2h2v-2H2v-1c0-.552.449-1 1-1h3a1 1 0 001-1v-5c0-4.411 3.589-8 8-8h1a1 1 0 001-1V9c4.962 0 9 4.037 9 9a1 1 0 001 1h3v-2h-2.045C27.448 11.401 22.729 7 17 7h-1a1 1 0 00-1 1v9C9.486 17 5 21.486 5 27v4H3c-1.654 0-3 1.346-3 3v8c0 1.654 1.346 3 3 3z"/><path d="M48 24c0-1.654-1.346-3-3-3H31c-1.654 0-3 1.346-3 3s1.346 3 3 3h14c1.654 0 3-1.346 3-3zm-3 1H31a1.001 1.001 0 010-2h14a1.001 1.001 0 010 2zm2-16c0-4.963-4.038-9-9-9s-9 4.037-9 9 4.038 9 9 9 9-4.037 9-9zM31 9c0-3.859 3.14-7 7-7s7 3.141 7 7-3.14 7-7 7-7-3.141-7-7z"/><path d="M43 9c0-2.757-2.243-5-5-5s-5 2.243-5 5 2.243 5 5 5 5-2.243 5-5zm-8 0c0-1.654 1.346-3 3-3s3 1.346 3 3-1.346 3-3 3-3-1.346-3-3zM14 27c-1.654 0-3 1.346-3 3s1.346 3 3 3 3-1.346 3-3-1.346-3-3-3zm0 4a1.001 1.001 0 010-2 1.001 1.001 0 010 2zm43 3v2c3.86 0 7-3.141 7-7h-2c0 2.757-2.243 5-5 5zm-20 3h2c1.103 0 2 .897 2 2h2c0-2.206-1.794-4-4-4v-2h-2v2c-2.206 0-4 1.794-4 4s1.794 4 4 4h2c1.103 0 2 .897 2 2s-.897 2-2 2h-2c-1.103 0-2-.897-2-2h-2c0 2.206 1.794 4 4 4v2h2v-2c2.206 0 4-1.794 4-4s-1.794-4-4-4h-2c-1.103 0-2-.897-2-2s.897-2 2-2zm0-8h2v2h-2zm4 0h2v2h-2zm-8 0h2v2h-2zm12 4h2v2h-2zm0 4h2v2h-2zm0 4h2v2h-2zm0 4h2v2h-2zm0 4h2v2h-2zM29 33h2v2h-2zm0 4h2v2h-2zm0 4h2v2h-2zm0 4h2v2h-2zm0 4h2v2h-2zm12 4h2v2h-2zm-4 0h2v2h-2zm-4 0h2v2h-2z"/></svg>