<svg xmlns="http://www.w3.org/2000/svg" viewBox="0 0 64 64"><path d="M46 43V16h-.051C45.431 8.195 38.933 2 31 2H5a1 1 0 00-1 1c0 4.535 2.031 8.598 5.222 11.351A18.866 18.866 0 008 21v18a1 1 0 001 1h4v10a1 1 0 001 1h14v4.25l-16.427 4.79.56 1.92 16.771-4.89 7.65 3.825a.994.994 0 00.893 0l7.65-3.825 16.771 4.89.56-1.92L46 55.25V43zm-2-26v24.951a9.907 9.907 0 01-7.819-5.252c.046-.013.089-.03.134-.044.054-.016.107-.035.161-.052a8.28 8.28 0 00.671-.25 7.97 7.97 0 004.476-4.932c.013-.04.024-.081.036-.122.057-.191.107-.384.15-.581.014-.066.029-.131.042-.198.035-.182.062-.367.085-.553.008-.069.019-.137.026-.207a7.869 7.869 0 00-.002-1.547c-.009-.087-.025-.172-.036-.258a7.775 7.775 0 00-.078-.508c-.02-.1-.047-.198-.07-.297a8.247 8.247 0 00-.114-.444c-.031-.103-.068-.203-.102-.304a7.88 7.88 0 00-.149-.407 8.081 8.081 0 00-.133-.301 8.217 8.217 0 00-.182-.378 7.905 7.905 0 00-.809-1.248c-.069-.087-.138-.174-.21-.258a8.038 8.038 0 00-.278-.305c-.075-.079-.15-.159-.228-.235a7.58 7.58 0 00-.312-.283c-.08-.07-.159-.142-.242-.209-.114-.092-.233-.177-.352-.263-.082-.059-.161-.121-.245-.177-.134-.089-.274-.17-.413-.251-.075-.044-.147-.091-.224-.133a7.86 7.86 0 00-.647-.312c-.009-.004-.017-.009-.026-.012a7.847 7.847 0 00-.707-.259c-.077-.024-.157-.041-.235-.063a8.392 8.392 0 00-.502-.13c-.096-.02-.194-.033-.29-.05-.125-.022-.248-.049-.375-.065V4.636C40.216 6.328 44 11.228 44 17zm-10 6c3.309 0 6 2.691 6 6 0 .358-.038.707-.098 1.048-.007.038-.01.076-.017.113-.061.31-.151.609-.257.9-.024.066-.046.134-.073.199a5.9 5.9 0 01-.376.755 5.648 5.648 0 01-.841 1.119 5.865 5.865 0 01-.566.526c-.079.064-.163.124-.246.184-.221.161-.45.313-.694.443-.064.034-.131.062-.196.095-.279.136-.566.26-.868.352-.023.007-.047.011-.07.018a6.128 6.128 0 01-1.057.213h-.001A6.006 6.006 0 0128 29c0-3.309 2.691-6 6-6zM6.038 4H31c.682 0 1.346.069 2 .17V16H19C12.168 16 6.55 10.703 6.038 4zM37 58.882l-7-3.5V50a1 1 0 00-1-1H15V39a1 1 0 00-1-1h-4V21c0-1.855.31-3.663.893-5.399A14.9 14.9 0 0019 18h14v3.069c-3.94.495-7 3.859-7 7.931s3.06 7.436 7 7.931V42h-9.184A2.996 2.996 0 0021 40h-1c-1.654 0-3 1.346-3 3s1.346 3 3 3h1a2.996 2.996 0 002.816-2H34a1 1 0 001-1v-4.381a11.88 11.88 0 009 5.338v11.425l-7 3.5zM22 43c0 .551-.449 1-1 1h-1c-.551 0-1-.449-1-1s.449-1 1-1h1c.551 0 1 .449 1 1z"/><path d="M34 33c2.206 0 4-1.794 4-4s-1.794-4-4-4-4 1.794-4 4 1.794 4 4 4zm0-6c1.103 0 2 .897 2 2s-.897 2-2 2-2-.897-2-2 .897-2 2-2z"/></svg>