<svg xmlns="http://www.w3.org/2000/svg" viewBox="0 0 64 64"><path d="M59 36h-3V24c0-2.757-2.243-5-5-5H38V1a1 1 0 00-1-1H1a1 1 0 00-1 1v52c0 2.757 2.243 5 5 5h1.08c.488 3.387 3.401 6 6.92 6s6.432-2.613 6.92-6h20.16c.488 3.387 3.401 6 6.92 6s6.432-2.613 6.92-6H59c2.757 0 5-2.243 5-5V41c0-2.757-2.243-5-5-5zM2 42h34v2H2v-2zM2 9V2h34v7h-2v2h2v29H2V11h2V9H2zm11 53c-2.757 0-5-2.243-5-5s2.243-5 5-5 5 2.243 5 5-2.243 5-5 5zm23-6H19.92c-.488-3.387-3.401-6-6.92-6s-6.432 2.613-6.92 6H5c-1.654 0-3-1.346-3-3v-7h34v10zm11 6c-2.757 0-5-2.243-5-5s2.243-5 5-5 5 2.243 5 5-2.243 5-5 5zm12-6h-5.08c-.488-3.387-3.401-6-6.92-6s-6.432 2.613-6.92 6H38V21h13c1.654 0 3 1.346 3 3v13a1 1 0 001 1h4c1.654 0 3 1.346 3 3v5h-2c-2.206 0-4 1.794-4 4s1.794 4 4 4h1.816A2.996 2.996 0 0159 56zm3-4h-2c-1.103 0-2-.897-2-2s.897-2 2-2h2v4z"/><path d="M51 23H41a1 1 0 00-1 1v9a1 1 0 001 1h10a1 1 0 001-1v-9a1 1 0 00-1-1zm-1 9h-8v-7h8v7zm-10 4h4v2h-4zM21 48h2v2h-2zm4 0h2v2h-2zm4 0h2v2h-2zm3-41h2v2h-2zm-2 2h2v2h-2zm-2-2h2v2h-2zm-2 2h2v2h-2zm-2-2h2v2h-2zm-2 2h2v2h-2zm-2-2h2v2h-2zm-2 2h2v2h-2zm-2-2h2v2h-2zm-2 2h2v2h-2zm-2-2h2v2h-2zm-2 2h2v2h-2zM8 7h2v2H8zM6 9h2v2H6zM4 7h2v2H4zm2.516 23.875a1 1 0 001.014-.027L14 26.805V30a1 1 0 001.53.848L22 26.805V30a1 1 0 001.53.848l8-5a1 1 0 000-1.696l-8-5A.998.998 0 0022 20v3.195l-6.47-4.044A1 1 0 0014 20v3.195l-6.47-4.044A.998.998 0 006 20v10a1 1 0 00.516.875zM24 21.804L29.113 25 24 28.196v-6.392zm-8 0L21.113 25 16 28.196v-6.392zm-8 0L13.113 25 8 28.196v-6.392z"/></svg>