<?xml version="1.0" encoding="iso-8859-1"?>
<!-- Generator: Adobe Illustrator 20.0.0, SVG Export Plug-In . SVG Version: 6.00 Build 0)  -->
<svg version="1.1" id="Layer_1_1_" xmlns="http://www.w3.org/2000/svg" xmlns:xlink="http://www.w3.org/1999/xlink" x="0px" y="0px"
	 viewBox="0 0 64 64" style="enable-background:new 0 0 64 64;" xml:space="preserve">
<g id="Guide">
	<g>
	</g>
	<g>
	</g>
	<g>
	</g>
	<g>
	</g>
	<g>
	</g>
	<g>
	</g>
	<g>
	</g>
	<g>
	</g>
	<g>
	</g>
	<g>
	</g>
	<g>
	</g>
	<g>
	</g>
	<g>
	</g>
	<g>
	</g>
	<g>
	</g>
	<g>
	</g>
	<g>
	</g>
	<g>
	</g>
	<g>
	</g>
	<g>
	</g>
	<g>
	</g>
	<g>
	</g>
	<g>
	</g>
	<g>
	</g>
	<g>
	</g>
	<g>
	</g>
	<g>
	</g>
	<g>
	</g>
	<g>
	</g>
	<g>
	</g>
	<g>
	</g>
	<g>
	</g>
	<g>
	</g>
	<g>
	</g>
	<g>
	</g>
	<g>
	</g>
</g>
<path d="M61,30v-3c0-5.514-4.486-10-10-10h-5v2h5c4.411,0,8,3.589,8,8v3H61z"/>
<path d="M3,45h2v4c0,5.177,3.954,9.447,9,9.95V61c0,1.654,1.346,3,3,3h10c1.654,0,3-1.346,3-3v-2h6v2c0,1.654,1.346,3,3,3h10
	c1.654,0,3-1.346,3-3v-2.05c5.046-0.503,9-4.773,9-9.95V38h-2v11c0,4.411-3.589,8-8,8c-0.552,0-1,0.447-1,1v3c0,0.552-0.449,1-1,1
	H39c-0.551,0-1-0.448-1-1v-3c0-0.553-0.448-1-1-1h-8c-0.552,0-1,0.447-1,1v3c0,0.552-0.449,1-1,1H17c-0.551,0-1-0.448-1-1v-3
	c0-0.553-0.448-1-1-1c-4.411,0-8-3.589-8-8v-5c0-0.553-0.448-1-1-1H3c-0.551,0-1-0.448-1-1v-1h2v-2H2v-2h2v-2H2v-1
	c0-0.552,0.449-1,1-1h3c0.552,0,1-0.447,1-1v-5c0-4.411,3.589-8,8-8h1c0.552,0,1-0.447,1-1V9c4.962,0,9,4.037,9,9
	c0,0.553,0.448,1,1,1h3v-2h-2.045C27.448,11.401,22.729,7,17,7h-1c-0.552,0-1,0.447-1,1v9C9.486,17,5,21.486,5,27v4H3
	c-1.654,0-3,1.346-3,3v8C0,43.654,1.346,45,3,45z"/>
<path d="M48,24c0-1.654-1.346-3-3-3H31c-1.654,0-3,1.346-3,3s1.346,3,3,3h14C46.654,27,48,25.654,48,24z M45,25H31
	c-0.551,0-1-0.448-1-1s0.449-1,1-1h14c0.551,0,1,0.448,1,1S45.551,25,45,25z"/>
<path d="M47,9c0-4.963-4.038-9-9-9s-9,4.037-9,9s4.038,9,9,9S47,13.963,47,9z M31,9c0-3.859,3.14-7,7-7s7,3.141,7,7s-3.14,7-7,7
	S31,12.859,31,9z"/>
<path d="M43,9c0-2.757-2.243-5-5-5s-5,2.243-5,5s2.243,5,5,5S43,11.757,43,9z M35,9c0-1.654,1.346-3,3-3s3,1.346,3,3s-1.346,3-3,3
	S35,10.654,35,9z"/>
<path d="M14,27c-1.654,0-3,1.346-3,3s1.346,3,3,3s3-1.346,3-3S15.654,27,14,27z M14,31c-0.551,0-1-0.448-1-1s0.449-1,1-1
	s1,0.448,1,1S14.551,31,14,31z"/>
<path d="M57,34v2c3.86,0,7-3.141,7-7h-2C62,31.757,59.757,34,57,34z"/>
<path d="M37,37h2c1.103,0,2,0.897,2,2h2c0-2.206-1.794-4-4-4v-2h-2v2c-2.206,0-4,1.794-4,4s1.794,4,4,4h2c1.103,0,2,0.897,2,2
	s-0.897,2-2,2h-2c-1.103,0-2-0.897-2-2h-2c0,2.206,1.794,4,4,4v2h2v-2c2.206,0,4-1.794,4-4s-1.794-4-4-4h-2c-1.103,0-2-0.897-2-2
	S35.897,37,37,37z"/>
<rect x="37" y="29" width="2" height="2"/>
<rect x="41" y="29" width="2" height="2"/>
<rect x="33" y="29" width="2" height="2"/>
<rect x="45" y="33" width="2" height="2"/>
<rect x="45" y="37" width="2" height="2"/>
<rect x="45" y="41" width="2" height="2"/>
<rect x="45" y="45" width="2" height="2"/>
<rect x="45" y="49" width="2" height="2"/>
<rect x="29" y="33" width="2" height="2"/>
<rect x="29" y="37" width="2" height="2"/>
<rect x="29" y="41" width="2" height="2"/>
<rect x="29" y="45" width="2" height="2"/>
<rect x="29" y="49" width="2" height="2"/>
<rect x="41" y="53" width="2" height="2"/>
<rect x="37" y="53" width="2" height="2"/>
<rect x="33" y="53" width="2" height="2"/>
</svg>
