<?xml version="1.0" encoding="iso-8859-1"?>
<!-- Generator: Adobe Illustrator 20.0.0, SVG Export Plug-In . SVG Version: 6.00 Build 0)  -->
<svg version="1.1" id="Layer_1_1_" xmlns="http://www.w3.org/2000/svg" xmlns:xlink="http://www.w3.org/1999/xlink" x="0px" y="0px"
	 viewBox="0 0 64 64" style="enable-background:new 0 0 64 64;" xml:space="preserve">
<g id="Guide">
	<g>
	</g>
	<g>
	</g>
	<g>
	</g>
	<g>
	</g>
	<g>
	</g>
	<g>
	</g>
	<g>
	</g>
	<g>
	</g>
	<g>
	</g>
	<g>
	</g>
	<g>
	</g>
	<g>
	</g>
	<g>
	</g>
	<g>
	</g>
	<g>
	</g>
	<g>
	</g>
	<g>
	</g>
	<g>
	</g>
	<g>
	</g>
	<g>
	</g>
	<g>
	</g>
	<g>
	</g>
	<g>
	</g>
	<g>
	</g>
	<g>
	</g>
	<g>
	</g>
	<g>
	</g>
	<g>
	</g>
	<g>
	</g>
	<g>
	</g>
	<g>
	</g>
	<g>
	</g>
	<g>
	</g>
	<g>
	</g>
	<g>
	</g>
	<g>
	</g>
</g>
<path d="M59,36h-3V24c0-2.757-2.243-5-5-5H38V1c0-0.552-0.447-1-1-1H1C0.447,0,0,0.448,0,1v44v8c0,2.757,2.243,5,5,5h1.08
	c0.488,3.387,3.401,6,6.92,6s6.432-2.613,6.92-6H37h3.08c0.488,3.387,3.401,6,6.92,6s6.432-2.613,6.92-6H59c2.757,0,5-2.243,5-5v-6
	v-6C64,38.243,61.757,36,59,36z M2,42h34v2H2V42z M2,9V2h34v7h-2v2h2v9v20H2V11h2V9H2z M13,62c-2.757,0-5-2.243-5-5s2.243-5,5-5
	s5,2.243,5,5S15.757,62,13,62z M36,56H19.92c-0.488-3.387-3.401-6-6.92-6s-6.432,2.613-6.92,6H5c-1.654,0-3-1.346-3-3v-7h34V56z
	 M47,62c-2.757,0-5-2.243-5-5s2.243-5,5-5s5,2.243,5,5S49.757,62,47,62z M59,56h-5.08c-0.488-3.387-3.401-6-6.92-6
	s-6.432,2.613-6.92,6H38V45V21h13c1.654,0,3,1.346,3,3v13c0,0.552,0.447,1,1,1h4c1.654,0,3,1.346,3,3v5h-2c-2.206,0-4,1.794-4,4
	s1.794,4,4,4h1.816C61.402,55.161,60.302,56,59,56z M62,52h-2c-1.103,0-2-0.897-2-2s0.897-2,2-2h2V52z"/>
<path d="M51,23H41c-0.553,0-1,0.448-1,1v9c0,0.552,0.447,1,1,1h10c0.553,0,1-0.448,1-1v-9C52,23.448,51.553,23,51,23z M50,32h-8v-7
	h8V32z"/>
<rect x="40" y="36" width="4" height="2"/>
<rect x="21" y="48" width="2" height="2"/>
<rect x="25" y="48" width="2" height="2"/>
<rect x="29" y="48" width="2" height="2"/>
<rect x="32" y="7" width="2" height="2"/>
<rect x="30" y="9" width="2" height="2"/>
<rect x="28" y="7" width="2" height="2"/>
<rect x="26" y="9" width="2" height="2"/>
<rect x="24" y="7" width="2" height="2"/>
<rect x="22" y="9" width="2" height="2"/>
<rect x="20" y="7" width="2" height="2"/>
<rect x="18" y="9" width="2" height="2"/>
<rect x="16" y="7" width="2" height="2"/>
<rect x="14" y="9" width="2" height="2"/>
<rect x="12" y="7" width="2" height="2"/>
<rect x="10" y="9" width="2" height="2"/>
<rect x="8" y="7" width="2" height="2"/>
<rect x="6" y="9" width="2" height="2"/>
<rect x="4" y="7" width="2" height="2"/>
<path d="M6.516,30.875C6.666,30.958,6.833,31,7,31c0.185,0,0.368-0.051,0.53-0.152L14,26.805V30c0,0.364,0.197,0.698,0.516,0.875
	C14.666,30.958,14.833,31,15,31c0.185,0,0.368-0.051,0.53-0.152L22,26.805V30c0,0.364,0.197,0.698,0.516,0.875
	C22.666,30.958,22.833,31,23,31c0.185,0,0.368-0.051,0.53-0.152l8-5C31.822,25.665,32,25.345,32,25s-0.178-0.665-0.47-0.848l-8-5
	c-0.31-0.193-0.699-0.203-1.015-0.026C22.197,19.302,22,19.636,22,20v3.195l-6.47-4.044c-0.31-0.193-0.698-0.203-1.015-0.026
	C14.197,19.302,14,19.636,14,20v3.195l-6.47-4.044c-0.31-0.193-0.699-0.203-1.015-0.026C6.197,19.302,6,19.636,6,20v10
	C6,30.364,6.197,30.698,6.516,30.875z M24,21.804L29.113,25L24,28.196V21.804z M16,21.804L21.113,25L16,28.196V21.804z M8,21.804
	L13.113,25L8,28.196V21.804z"/>
</svg>
